# Blender v2.79 (sub 0) OBJ File: ''
# www.blender.org
o shell_pistol
v -0.573576 -1.359714 -0.819152
v -0.573576 1.481453 -0.819152
v 0.601815 -1.359714 -0.798635
v 0.945519 -1.359714 0.325568
v -0.017452 -1.359714 0.999848
v -0.017452 1.481453 0.999848
v -0.956305 -1.359714 0.292372
v 0.601815 1.481453 -0.798635
v 0.945519 1.481453 0.325568
v -0.956305 1.481453 0.292372
vt 0.704782 0.502919
vt 0.704782 0.999169
vt 0.610098 0.999169
vt 0.610098 0.502919
vt 0.515414 0.999169
vt 0.515414 0.502919
vt 0.988834 0.502919
vt 0.988834 0.999169
vt 0.894150 0.999169
vt 0.894150 0.502919
vt 0.799466 0.999169
vt 0.799466 0.502919
vt 0.374414 0.760039
vt 0.512532 0.664423
vt 0.459776 0.509712
vt 0.289052 0.509712
vt 0.236296 0.664423
vt 0.512392 0.912347
vt 0.374414 1.007867
vt 0.236436 0.912347
vt 0.289139 0.757794
vt 0.459689 0.757794
vn -0.5736 0.0000 -0.8192
vn -0.4607 0.5957 -0.6580
vn 0.4834 0.5957 -0.6415
vn 0.6018 0.0000 -0.7986
vn 0.7595 0.5957 0.2615
vn 0.9455 0.0000 0.3256
vn -0.0140 0.5957 0.8031
vn -0.0175 0.0000 0.9998
vn -0.7681 0.5957 0.2348
vn -0.9563 0.0000 0.2924
vn 0.0000 -1.0000 -0.0000
s 1
f 1/1/1 2/2/2 8/3/3 3/4/4
f 3/4/4 8/3/3 9/5/5 4/6/6
f 4/7/6 9/8/5 6/9/7 5/10/8
f 5/10/8 6/9/7 10/11/9 7/12/10
f 7/12/10 10/11/9 2/2/2 1/1/1
f 1/13/11 3/14/11 4/15/11 5/16/11 7/17/11
f 8/18/3 2/19/2 10/20/9 6/21/7 9/22/5
